# This file uses meters as units for non-parametric coordinates.

mtllib DoorSchool.mtl
g default
v -75.000000 -6.359619 -25.000000
v -75.000000 193.640381 -25.000000
v -65.000000 193.640381 -25.000000
v -65.000000 3.640381 -25.000000
v 75.000000 -6.359619 -25.000000
v 0.000000 -6.359619 -25.000000
v 0.000000 3.640381 -25.000000
v 65.000000 3.640381 -25.000000
v -65.000000 193.640381 -15.000000
v -65.000000 3.640381 -15.000000
v 0.000000 3.640381 -15.000000
v 65.000000 3.640381 -15.000000
v -75.000000 -6.359619 25.000000
v -75.000000 193.640381 25.000000
v 75.000000 -6.359619 25.000000
v 0.000000 -6.359619 25.000000
v -65.000000 3.640381 25.000000
v -65.000000 193.640381 25.000000
v 0.000000 193.640381 -15.000000
v -65.000000 3.640381 15.000000
v -65.000000 193.640381 15.000000
v 0.000000 3.640381 25.000000
v 65.000000 3.640381 25.000000
v 65.000000 3.640381 15.000000
v 0.000000 3.640381 15.000000
v 0.000000 193.640381 15.000000
v 15.862637 134.631363 -15.000000
v 15.862637 134.631363 -20.884842
v 15.862637 128.903214 -20.884842
v 15.862637 128.903214 -15.000000
v 34.411457 126.676353 -23.853992
v 34.411457 126.676353 -15.000000
v 34.411457 136.858231 -23.853992
v 75.000000 193.640381 -25.000000
v 65.000000 193.640381 -25.000000
v 34.411457 136.858231 -15.000000
v 65.000000 193.640381 -15.000000
v 64.147003 128.363907 -21.603922
v 64.147003 128.363907 -15.000000
v 64.147003 135.170670 -21.603922
v 16.162718 128.867188 15.000000
v 15.862637 128.903214 15.048035
v 15.862637 134.631363 15.048035
v 16.162718 134.667389 15.000000
v 64.147003 135.170670 -15.000000
v 15.862637 128.903214 22.685562
v 15.862637 134.631363 22.685562
v 75.000000 193.640381 25.000000
v 34.411457 126.676353 25.654713
v 34.411457 136.858231 25.654713
v 65.000000 193.640381 25.000000
v 65.000000 193.640381 15.000000
v -75.000000 393.640381 -25.000000
v -65.000000 383.640381 -25.000000
v 64.147003 128.363907 15.000000
v 64.147003 128.363907 23.404642
v 34.411457 126.676353 15.000000
v -65.000000 383.640381 -15.000000
v 34.411457 136.858231 15.000000
v 64.147003 135.170670 23.404642
v 64.147003 135.170670 15.000000
v -75.000000 393.640381 25.000000
v 0.000000 383.640381 -15.000000
v -65.000000 383.640381 25.000000
v -65.000000 383.640381 15.000000
v 0.000000 383.640381 15.000000
v 65.000000 383.640381 -15.000000
v 0.000000 393.640381 -25.000000
v 0.000000 383.640381 -25.000000
v 65.000000 383.640381 -25.000000
v 75.000000 393.640381 -25.000000
v 65.000000 383.640381 15.000000
v 0.000000 393.640381 25.000000
v 75.000000 393.640381 25.000000
v 0.000000 383.640381 25.000000
v 65.000000 383.640381 25.000000
vt 0.356528 0.001992
vt 0.356528 0.250072
vt 0.343472 0.250072
vt 0.343472 0.001992
vt 0.356528 0.498153
vt 0.343472 0.498153
vt 0.217358 0.001992
vt 0.282642 0.001992
vt 0.282642 0.263129
vt 0.217358 0.263129
vt 0.282642 0.524266
vt 0.217358 0.524266
vt 0.343472 0.250072
vt 0.343472 0.001992
vt 0.356528 0.001992
vt 0.356528 0.250072
vt 0.343472 0.498153
vt 0.356528 0.498153
vt 0.707910 0.246166
vt 0.707910 0.268881
vt 0.685800 0.268881
vt 0.685800 0.246166
vt 0.343472 0.250000
vt 0.343472 0.001920
vt 0.356528 0.001920
vt 0.356528 0.250000
vt 0.343472 0.498080
vt 0.356528 0.498080
vt 0.766976 0.275646
vt 0.766976 0.246166
vt 0.789085 0.246166
vt 0.789085 0.275646
vt 0.217358 0.001992
vt 0.282642 0.001992
vt 0.282642 0.263129
vt 0.217358 0.263129
vt 0.282642 0.524266
vt 0.217358 0.524266
vt 0.724698 0.246166
vt 0.750187 0.246166
vt 0.750187 0.272439
vt 0.724698 0.272439
vt 0.356528 0.001920
vt 0.356528 0.250000
vt 0.343472 0.250000
vt 0.343472 0.001920
vt 0.356528 0.498080
vt 0.343472 0.498080
vt 0.832146 0.246166
vt 0.832146 0.278607
vt 0.805873 0.278607
vt 0.805873 0.246166
vt 0.406528 0.015130
vt 0.406528 0.100000
vt 0.393472 0.100000
vt 0.393472 0.015130
vt 0.406528 0.184870
vt 0.393472 0.184870
vt 0.467358 0.100000
vt 0.467358 0.002074
vt 0.532642 0.002074
vt 0.532642 0.100000
vt 0.467358 0.197926
vt 0.532642 0.197926
vt 0.393472 0.100000
vt 0.393472 0.015130
vt 0.406528 0.015130
vt 0.406528 0.100000
vt 0.393472 0.184870
vt 0.406528 0.184870
vt 0.619279 0.207763
vt 0.596564 0.207763
vt 0.585104 0.136168
vt 0.619279 0.136168
vt 0.593789 0.021393
vt 0.619279 0.021393
vt 0.880721 0.136167
vt 0.914896 0.136167
vt 0.903436 0.207763
vt 0.880721 0.207763
vt 0.880721 0.021393
vt 0.906211 0.021393
vt 0.877246 0.021393
vt 0.909686 0.021393
vt 0.918371 0.136167
vt 0.877246 0.136167
vt 0.906911 0.207763
vt 0.877431 0.207763
vt 0.877246 0.206605
vt 0.622754 0.136168
vt 0.581629 0.136168
vt 0.590314 0.021393
vt 0.622754 0.021393
vt 0.622754 0.206605
vt 0.622569 0.207763
vt 0.593089 0.207763
vt 0.393472 0.184870
vt 0.393472 0.100000
vt 0.406528 0.100000
vt 0.406528 0.184870
vt 0.393472 0.015130
vt 0.406528 0.015130
vt 0.467358 0.197926
vt 0.467358 0.100000
vt 0.532642 0.100000
vt 0.532642 0.197926
vt 0.467358 0.002074
vt 0.532642 0.002074
vt 0.406528 0.100000
vt 0.406528 0.184870
vt 0.393472 0.184870
vt 0.393472 0.100000
vt 0.406528 0.015130
vt 0.393472 0.015130
vt 0.197697 0.001992
vt 0.197697 0.263129
vt 0.184640 0.263129
vt 0.184640 0.015049
vt 0.197697 0.524266
vt 0.184640 0.511210
vt 0.099770 0.001992
vt 0.099770 0.015049
vt 0.099770 0.524266
vt 0.099770 0.511210
vt 0.001844 0.001992
vt 0.014901 0.015049
vt 0.001844 0.524266
vt 0.014901 0.511210
vt 0.001844 0.263129
vt 0.014901 0.263129
vt 0.002074 0.263129
vt 0.002074 0.001992
vt 0.015130 0.015049
vt 0.015130 0.263129
vt 0.100000 0.001992
vt 0.100000 0.015049
vt 0.002074 0.524266
vt 0.015130 0.511210
vt 0.197926 0.001992
vt 0.184870 0.015049
vt 0.100000 0.524266
vt 0.100000 0.511210
vt 0.197926 0.263129
vt 0.184870 0.263129
vt 0.197926 0.524266
vt 0.184870 0.511210
vt 0.721915 0.650047
vt 0.611986 0.650047
vt 0.611986 0.328716
vt 0.721915 0.328716
vt 0.721915 0.971378
vt 0.611986 0.971378
vt 0.585159 0.540562
vt 0.553789 0.536796
vt 0.503499 0.539650
vt 0.502057 0.650047
vt 0.502057 0.328716
vt 0.502057 0.971378
vt 0.503499 0.551162
vt 0.553789 0.554016
vt 0.585159 0.550250
vt 0.778085 0.328622
vt 0.888014 0.328622
vt 0.888014 0.649953
vt 0.778085 0.649953
vt 0.997943 0.328622
vt 0.996500 0.551068
vt 0.996500 0.539556
vt 0.946211 0.536702
vt 0.915349 0.540408
vt 0.888014 0.971284
vt 0.778085 0.971284
vt 0.997943 0.649953
vt 0.915349 0.550217
vt 0.946211 0.553922
vt 0.997943 0.971284
vt 0.738945 0.207763
vt 0.730350 0.136168
vt 0.769650 0.136168
vt 0.761055 0.207763
vt 0.736863 0.021393
vt 0.763137 0.021393
vt 0.669012 0.268554
vt 0.667854 0.268415
vt 0.667854 0.246306
vt 0.669012 0.246167
vt 0.738945 0.207763
vt 0.730350 0.136167
vt 0.769650 0.136167
vt 0.761055 0.207763
vt 0.736863 0.021393
vt 0.763136 0.021393
vn 0.000000 0.000000 -1.000000
vn 0.000000 0.000000 -1.000000
vn 0.000000 0.000000 -1.000000
vn 0.000000 0.000000 -1.000000
vn 0.000000 0.000000 -1.000000
vn 0.000000 0.000000 -1.000000
vn 0.000000 0.000000 -1.000000
vn 0.000000 0.000000 -1.000000
vn 1.000000 0.000000 0.000000
vn 1.000000 0.000000 0.000000
vn 1.000000 0.000000 0.000000
vn 1.000000 0.000000 0.000000
vn 0.000000 1.000000 0.000000
vn 0.000000 1.000000 0.000000
vn 0.000000 1.000000 0.000000
vn 0.000000 1.000000 0.000000
vn -1.000000 0.000000 0.000000
vn -1.000000 0.000000 0.000000
vn -1.000000 0.000000 0.000000
vn -1.000000 0.000000 0.000000
vn 0.000000 -1.000000 0.000000
vn 0.000000 -1.000000 0.000000
vn 0.000000 -1.000000 0.000000
vn 0.000000 -1.000000 0.000000
vn 0.000000 0.000000 1.000000
vn 0.000000 0.000000 1.000000
vn 0.000000 0.000000 1.000000
vn 0.000000 0.000000 1.000000
vn 0.000000 0.000000 -1.000000
vn 0.000000 0.000000 -1.000000
vn 0.000000 0.000000 -1.000000
vn 0.000000 0.000000 -1.000000
vn 1.000000 0.000000 0.000000
vn 1.000000 0.000000 0.000000
vn 1.000000 0.000000 0.000000
vn 1.000000 0.000000 0.000000
vn 0.000000 1.000000 0.000000
vn 0.000000 1.000000 0.000000
vn 0.000000 1.000000 0.000000
vn 0.000000 1.000000 0.000000
vn 0.000000 0.000000 1.000000
vn 0.000000 0.000000 1.000000
vn 0.000000 0.000000 1.000000
vn 0.000000 0.000000 1.000000
vn 0.000000 0.000000 1.000000
vn 0.000000 0.000000 1.000000
vn 0.000000 0.000000 1.000000
vn 0.000000 0.000000 1.000000
vn -1.000000 0.000000 0.000000
vn -1.000000 0.000000 0.000000
vn -1.000000 0.000000 0.000000
vn -1.000000 0.000000 0.000000
vn -0.119198 -0.992871 0.000000
vn -0.119198 -0.992871 0.000000
vn -0.006867 -0.999976 0.000000
vn -0.009188 -0.999958 0.000000
vn -0.158060 0.000000 -0.987429
vn -0.009001 0.000000 -0.999960
vn -0.009002 0.000000 -0.999960
vn -0.158060 0.000000 -0.987430
vn 0.000000 0.000000 -1.000000
vn 0.000000 0.000000 -1.000000
vn -0.009188 0.999958 0.000000
vn -0.006867 0.999976 0.000000
vn -0.119198 0.992870 0.000000
vn -0.119198 0.992871 0.000000
vn -1.000000 0.000000 0.000000
vn -1.000000 0.000000 0.000000
vn -1.000000 0.000000 0.000000
vn -1.000000 0.000000 0.000000
vn 0.056661 -0.998393 0.000000
vn 0.056661 -0.998393 0.000000
vn 0.075454 0.000000 -0.997149
vn 0.075454 0.000000 -0.997149
vn -0.158054 0.000000 -0.987430
vn -0.158054 0.000000 -0.987430
vn -0.158054 0.000000 -0.987430
vn -0.158054 0.000000 -0.987430
vn 0.056661 0.998393 0.000000
vn 0.056661 0.998394 0.000000
vn -1.000000 0.000000 0.000000
vn -1.000000 0.000000 0.000000
vn -1.000000 0.000000 0.000000
vn -1.000000 0.000000 0.000000
vn 1.000000 0.000000 0.000000
vn 1.000000 0.000000 0.000000
vn 1.000000 0.000000 0.000000
vn 1.000000 0.000000 0.000000
vn 1.000000 0.000000 0.000000
vn 1.000000 0.000000 0.000000
vn 1.000000 0.000000 0.000000
vn 1.000000 0.000000 0.000000
vn -0.158060 0.000000 0.987430
vn -0.009001 0.000000 0.999960
vn -0.009001 0.000000 0.999960
vn -0.158060 0.000000 0.987430
vn -1.000000 0.000000 0.000000
vn -1.000000 0.000000 0.000000
vn -1.000000 0.000000 0.000000
vn -1.000000 0.000000 0.000000
vn 0.000000 0.000000 1.000000
vn 0.000000 0.000000 1.000000
vn 0.000000 0.000000 -1.000000
vn 0.000000 0.000000 -1.000000
vn 0.056661 -0.998393 0.000000
vn 0.056661 -0.998394 0.000000
vn -0.007240 -0.999974 -0.000001
vn -0.009566 -0.999954 -0.000001
vn 1.000000 0.000000 0.000000
vn 1.000000 0.000000 0.000000
vn -0.009566 0.999954 0.000001
vn -0.007240 0.999974 0.000001
vn 0.056661 0.998393 0.000000
vn 0.056661 0.998394 0.000000
vn 0.075454 0.000000 0.997149
vn 0.075454 0.000000 0.997149
vn 1.000000 0.000000 0.000000
vn 1.000000 0.000000 0.000000
vn 1.000000 0.000000 0.000000
vn 1.000000 0.000000 0.000000
vn -1.000000 0.000000 0.000000
vn -1.000000 0.000000 0.000000
vn 0.000000 0.000000 -1.000000
vn 0.000000 0.000000 -1.000000
vn 1.000000 0.000000 0.000000
vn 1.000000 0.000000 0.000000
vn 0.000000 0.000000 1.000000
vn 0.000000 0.000000 1.000000
vn -0.119198 -0.992871 -0.000001
vn -0.119198 -0.992871 -0.000001
vn -0.119198 -0.992871 -0.000001
vn 0.000000 0.000000 1.000000
vn 0.000000 0.000000 1.000000
vn -0.119198 0.992870 0.000001
vn -0.119198 0.992871 0.000001
vn -0.119198 0.992871 0.000001
vn 0.000000 0.000000 -1.000000
vn 0.000000 0.000000 -1.000000
vn 0.000000 0.000000 -1.000000
vn 0.000000 0.000000 -1.000000
vn 0.000000 -1.000000 0.000000
vn 0.000000 -1.000000 0.000000
vn 0.000000 -1.000000 0.000000
vn 0.000000 -1.000000 0.000000
vn -1.000000 0.000000 0.000000
vn -1.000000 0.000000 0.000000
vn 0.000000 0.000000 -1.000000
vn 0.000000 0.000000 -1.000000
vn 0.000000 0.000000 1.000000
vn 0.000000 0.000000 1.000000
vn 0.000000 1.000000 0.000000
vn 0.000000 1.000000 0.000000
vn 0.000000 1.000000 0.000000
vn 0.000000 1.000000 0.000000
vn 1.000000 0.000000 0.000000
vn 1.000000 0.000000 0.000000
vn 0.000000 -1.000000 0.000000
vn 0.000000 -1.000000 0.000000
vn 0.000000 -1.000000 0.000000
vn 0.000000 -1.000000 0.000000
vn -1.000000 0.000000 0.000000
vn -1.000000 0.000000 0.000000
vn 0.000000 0.000000 1.000000
vn 0.000000 0.000000 1.000000
vn 0.000000 0.000000 1.000000
vn 0.000000 0.000000 1.000000
vn 0.000000 -1.000000 0.000000
vn 0.000000 -1.000000 0.000000
vn 0.000000 0.000000 -1.000000
vn 0.000000 0.000000 -1.000000
vn 0.000000 0.000000 -1.000000
vn 0.000000 0.000000 -1.000000
vn 0.000000 1.000000 0.000000
vn 0.000000 1.000000 0.000000
vn 0.000000 -1.000000 0.000000
vn 0.000000 -1.000000 0.000000
vn 0.000000 0.000000 1.000000
vn 0.000000 0.000000 1.000000
vn 0.000000 0.000000 1.000000
vn 0.000000 0.000000 1.000000
vn 0.000000 0.000000 1.000000
vn 0.000000 0.000000 -1.000000
vn 0.000000 0.000000 -1.000000
vn 0.000000 0.000000 -1.000000
vn 0.000000 0.000000 1.000000
vn 0.000000 0.000000 1.000000
vn 0.000000 1.000000 0.000000
vn 0.000000 1.000000 0.000000
vn 0.000000 -1.000000 0.000000
vn 0.000000 -1.000000 0.000000
vn 0.000000 1.000000 0.000000
vn 0.000000 1.000000 0.000000
s 1
g dOOR
usemtl initialShadingGroup
f 1/115/1 2/116/2 3/117/3 4/118/4
f 5/125/5 6/121/6 7/122/7 8/126/8
s 2
f 4/1/9 3/2/10 9/3/11 10/4/12
s 3
f 8/53/13 7/54/14 11/55/15 12/56/16
s 4
f 1/7/17 13/8/18 14/9/19 2/10/20
s 5
f 6/59/21 5/60/22 15/61/23 16/62/24
s 6
f 14/131/25 13/132/26 17/133/27 18/134/28
s 7
f 9/147/29 19/148/30 11/149/31 10/150/32
s 8
f 18/13/33 17/14/34 20/15/35 21/16/36
s 9
f 22/65/37 23/66/38 24/67/39 25/68/40
s 6
f 16/135/41 15/139/42 23/140/43 22/136/44
s 11
f 20/162/45 25/163/46 26/164/47 21/165/48
s off
f 27/19/49 28/20/50 29/21/51 30/22/52
s 12
f 30/71/53 29/72/54 31/73/55 32/74/56
s 13
f 28/177/57 33/178/58 31/179/59 29/180/60
s 1
f 34/129/61 5/125/5 8/126/8 35/130/62
s 14
f 36/77/63 33/78/64 28/79/65 27/80/66
s 15
f 35/23/67 8/24/68 12/25/69 37/26/70
s 12
f 32/74/56 31/73/55 38/75/71 39/76/72
s 13
f 33/178/58 40/181/73 38/182/74 31/179/59
s off
f 41/183/75 42/184/76 43/185/77 44/186/78
s 14
f 45/81/79 40/82/80 33/78/64 36/77/63
s off
f 42/29/81 46/30/82 47/31/83 43/32/84
s 16
f 15/33/85 5/34/86 34/35/87 48/36/88
s off
f 39/39/89 38/40/90 40/41/91 45/42/92
s 17
f 46/187/93 49/188/94 50/189/95 47/190/96
s 18
f 23/43/97 51/44/98 52/45/99 24/46/100
s 6
f 15/139/42 48/143/101 51/144/102 23/140/43
s 1
f 2/116/2 53/119/103 54/120/104 3/117/3
s 19
f 55/83/105 56/84/106 49/85/107 57/86/108
s 2
f 3/2/10 54/5/109 58/6/110 9/3/11
s 20
f 59/90/111 50/91/112 60/92/113 61/93/114
s 17
f 49/188/94 56/191/115 60/192/116 50/189/95
s off
f 61/49/117 60/50/118 56/51/119 55/52/120
s 4
f 2/10/20 14/9/19 62/11/121 53/12/122
s 7
f 58/151/123 63/152/124 19/148/30 9/147/29
s 8
f 64/17/125 18/13/33 21/16/36 65/18/126
s 6
f 62/137/127 14/131/25 18/134/28 64/138/128
s 19
f 57/86/108 49/85/107 46/87/129 42/88/130 41/89/131
s 11
f 21/165/48 26/164/47 66/171/132 65/172/133
s 20
f 44/94/134 43/95/135 47/96/136 50/91/112 59/90/111
s 7
f 63/152/124 67/158/137 37/156/138 19/148/30
s 1
f 53/119/103 68/123/139 69/124/140 54/120/104
s 21
f 54/97/141 69/98/142 63/99/143 58/100/144
s 15
f 70/27/145 35/23/67 37/26/70 67/28/146
s 1
f 71/127/147 34/129/61 35/130/62 70/128/148
s 11
f 26/164/47 52/173/149 72/176/150 66/171/132
s 22
f 62/103/151 73/104/152 68/105/153 53/106/154
s 16
f 48/36/88 34/35/87 71/37/155 74/38/156
s 23
f 75/109/157 64/110/158 65/111/159 66/112/160
s 18
f 51/44/98 76/47/161 72/48/162 52/45/99
s 6
f 73/141/163 62/137/127 64/138/128 75/142/164
f 48/143/101 74/145/165 76/146/166 51/144/102
s 21
f 69/98/142 70/101/167 67/102/168 63/99/143
s 1
f 68/123/139 71/127/147 70/128/148 69/124/140
s 7
f 19/148/30 30/153/169 32/154/170 39/155/171 37/156/138 12/157/172 11/149/31
s 22
f 73/104/152 74/107/173 71/108/174 68/105/153
s 23
f 76/113/175 75/109/157 66/112/160 72/114/176
s 6
f 74/145/165 73/141/163 75/142/164 76/146/166
s 11
f 25/163/46 24/166/177 61/167/178 55/168/179 57/169/180 41/170/181 26/164/47
s 7
f 39/155/171 45/159/182 36/160/183 27/161/184 30/153/169 19/148/30 37/156/138
s 11
f 24/166/177 52/173/149 26/164/47 41/170/181 44/174/185 59/175/186 61/167/178
s 9
f 17/69/187 22/65/37 25/68/40 20/70/188
s 6
f 13/132/26 16/135/41 22/136/44 17/133/27
s 5
f 1/63/189 6/59/21 16/62/24 13/64/190
s 3
f 7/54/14 4/57/191 10/58/192 11/55/15
s 1
f 6/121/6 1/115/1 4/118/4 7/122/7
